<?xml version="1.0" standalone="no"?>
<!DOCTYPE svg PUBLIC "-//W3C//DTD SVG 20010904//EN"
 "http://www.w3.org/TR/2001/REC-SVG-20010904/DTD/svg10.dtd">
<svg version="1.0" xmlns="http://www.w3.org/2000/svg"
 width="512.000000pt" height="512.000000pt" viewBox="0 0 512.000000 512.000000"
 preserveAspectRatio="xMidYMid meet">
<metadata>
Created by potrace 1.14, written by Peter Selinger 2001-2017
</metadata>
<g transform="translate(0.000000,512.000000) scale(0.100000,-0.100000)"
fill="#000000" stroke="none">
<path d="M2683 4610 c-273 -29 -499 -222 -567 -487 -14 -55 -76 -514 -121
-898 -24 -203 1 -340 80 -447 49 -66 197 -193 262 -223 119 -57 318 -69 468
-30 232 60 409 234 469 460 9 33 41 263 72 510 76 612 72 703 -36 846 -47 62
-186 181 -249 214 -95 48 -241 69 -378 55z m119 -585 c-2 -27 -28 -242 -57
-477 -57 -460 -61 -479 -121 -507 -32 -14 -45 -1 -38 39 2 14 27 212 54 440
27 228 52 432 56 453 8 49 59 109 88 105 19 -3 21 -8 18 -53z"/>
<path d="M782 4577 c-6 -7 -22 -102 -36 -212 -28 -218 -27 -225 30 -225 32 0
34 -2 34 -34 0 -22 6 -36 16 -40 9 -3 71 -6 140 -6 l124 0 -5 -27 c-3 -16 -43
-338 -90 -717 -62 -504 -81 -693 -73 -703 6 -7 26 -13 44 -13 32 0 34 -2 34
-34 0 -22 6 -36 16 -40 9 -3 116 -6 239 -6 190 0 226 2 239 16 9 8 16 19 16
24 0 21 181 1476 185 1488 3 9 48 12 178 12 127 0 178 4 191 13 14 11 23 52
43 216 27 224 26 231 -33 231 -30 0 -33 3 -36 33 l-3 32 -621 3 c-501 2 -624
0 -632 -11z"/>
<path d="M3522 4578 c-12 -15 -245 -1896 -240 -1943 3 -27 7 -30 41 -33 35 -3
37 -5 37 -37 0 -21 6 -35 16 -39 9 -3 116 -6 238 -6 162 0 227 3 239 13 14 10
26 78 62 365 24 194 47 357 50 362 4 6 58 10 124 10 153 0 208 11 309 61 221
108 352 351 352 651 0 192 -45 304 -170 426 -88 87 -138 123 -211 154 -52 22
-65 23 -445 26 -316 3 -393 1 -402 -10z m626 -572 c7 -101 -34 -204 -91 -235
-15 -8 -29 -12 -31 -10 -3 3 27 265 33 297 1 2 20 2 44 0 l42 -3 3 -49z"/>
<path d="M766 2298 c-8 -14 -23 -105 -37 -221 -25 -219 -26 -217 38 -217 28 0
32 -3 35 -32 l3 -33 133 -3 c104 -2 132 -5 132 -16 0 -8 -38 -323 -85 -701
-47 -377 -85 -699 -85 -715 0 -30 14 -40 60 -40 25 0 29 -4 32 -32 l3 -33 241
-3 c185 -2 244 1 252 10 5 7 51 348 101 758 51 410 94 751 96 758 3 9 49 12
183 12 147 0 182 3 192 15 14 17 65 398 56 421 -3 8 -19 14 -41 14 -30 0 -35
3 -35 24 0 60 46 56 -636 56 l-624 0 -14 -22z"/>
<path d="M2171 2302 c-12 -23 -243 -1904 -239 -1946 3 -29 6 -31 45 -34 39 -3
42 -5 45 -35 l3 -32 537 -3 c504 -2 538 -1 546 15 14 25 57 396 49 416 -4 11
-18 17 -41 17 -33 0 -35 2 -38 38 l-3 37 -244 3 -243 2 5 33 c3 17 9 59 12 92
3 33 9 72 11 87 l6 28 153 0 c119 0 157 3 168 14 16 16 64 393 54 420 -4 10
-19 16 -41 16 -33 0 -35 2 -38 38 l-3 37 -112 3 -113 3 1 37 c0 20 6 73 12
117 l12 80 287 5 c157 3 290 8 294 12 10 11 58 404 51 423 -4 9 -19 15 -41 15
-33 0 -35 2 -38 38 l-3 37 -542 3 c-515 2 -543 1 -552 -16z"/>
<path d="M3400 2298 c-9 -21 -240 -1896 -240 -1944 0 -24 17 -34 60 -34 25 0
29 -4 32 -32 l3 -33 243 -3 242 -2 8 22 c5 13 24 155 42 317 21 180 37 284 41
270 4 -13 20 -130 35 -259 15 -139 32 -244 40 -257 10 -15 24 -23 43 -23 23 0
30 -6 37 -32 l10 -33 272 -3 272 -2 10 22 c13 30 242 1889 238 1931 -3 29 -6
32 -40 35 -35 3 -37 5 -40 40 l-3 37 -241 3 c-209 2 -243 0 -254 -13 -8 -10
-27 -135 -49 -320 -19 -168 -38 -301 -42 -297 -3 4 -21 124 -39 267 -17 143
-36 265 -42 272 -5 6 -22 13 -36 15 -20 2 -28 9 -30 28 -7 50 -7 50 -293 50
l-269 0 -10 -22z"/>
</g>
</svg>
