<?xml version="1.0" standalone="no"?>
<!DOCTYPE svg PUBLIC "-//W3C//DTD SVG 20010904//EN"
 "http://www.w3.org/TR/2001/REC-SVG-20010904/DTD/svg10.dtd">
<svg version="1.0" xmlns="http://www.w3.org/2000/svg"
 width="512.000000pt" height="512.000000pt" viewBox="0 0 512.000000 512.000000"
 preserveAspectRatio="xMidYMid meet">
<metadata>
Created by potrace 1.14, written by Peter Selinger 2001-2017
</metadata>
<g transform="translate(0.000000,512.000000) scale(0.100000,-0.100000)"
fill="#000000" stroke="none">
<path d="M766 2298 c-21 -35 -61 -404 -46 -423 10 -11 48 -15 184 -17 l171 -3
-3 -40 c-1 -22 -41 -363 -89 -758 -76 -621 -85 -719 -73 -727 8 -6 121 -10
251 -10 187 0 239 3 248 14 6 7 53 352 104 767 l93 754 182 3 c176 2 182 3
196 25 8 13 24 103 37 214 18 156 20 195 9 208 -11 13 -88 15 -631 15 l-619 0
-14 -22z"/>
<path d="M2170 2298 c-10 -22 -240 -1884 -240 -1938 0 -16 7 -30 16 -34 9 -3
251 -6 539 -6 463 0 525 2 539 16 9 8 16 18 16 20 0 3 9 79 21 171 11 91 19
184 17 207 l-3 41 -282 3 -283 2 0 28 c0 15 7 82 15 147 8 66 15 123 15 128 0
4 69 7 154 7 127 0 157 3 170 16 9 8 16 18 16 22 0 4 9 82 21 175 11 92 19
184 17 205 l-3 37 -154 7 c-84 4 -155 9 -157 11 -3 2 4 69 13 148 l18 144 288
5 c221 4 290 8 296 18 11 18 54 370 49 407 l-3 30 -543 3 -542 2 -10 -22z"/>
<path d="M3414 2312 c-6 -4 -14 -16 -17 -27 -3 -11 -58 -451 -123 -978 -94
-771 -114 -960 -104 -972 10 -13 51 -15 245 -15 208 0 233 2 247 18 11 12 28
127 62 422 26 223 50 419 53 435 7 31 17 -36 87 -582 19 -146 39 -270 46 -278
11 -13 54 -15 280 -15 202 0 270 3 278 13 14 16 244 1873 240 1935 l-3 47
-241 3 c-200 2 -243 0 -253 -12 -7 -8 -30 -160 -52 -338 -49 -403 -69 -562
-73 -565 -1 -1 -21 149 -45 335 -58 462 -72 555 -83 570 -8 9 -75 12 -272 12
-143 0 -266 -4 -272 -8z"/>
</g>
</svg>
